<?xml version="1.0" encoding="utf-8"?>
<svg width="630" height="444" viewBox="0 0 630 444" fill="none" xmlns="http://www.w3.org/2000/svg">
  <path d="M305.114 0.988342C282.13 3.5184 257.109 12.889 239.846 25.4455C230.342 32.3797 214.34 48.4034 208.618 56.7432C199.114 70.7054 192.035 87.1976 188.349 104.346C185.537 116.809 185.343 138.736 187.865 151.854C189.998 163.287 194.944 177.624 200.375 188.025C211.916 210.046 232.185 230.286 254.587 242.093C301.914 267.019 356.999 263.083 400.059 231.785C426.243 212.669 445.155 182.59 450.876 150.917C453.107 138.548 452.331 111.561 449.519 100.691C439.336 61.897 414.121 30.9742 378.82 13.7323C369.51 9.23444 353.411 4.17433 343.131 2.39393C332.366 0.613519 314.424 -0.0424209 305.114 0.988342ZM337.312 4.17433C346.719 5.48621 360.684 8.95332 363.012 10.4526C364.176 11.2023 363.982 11.6708 361.654 13.3575C360.102 14.482 351.374 21.4162 342.161 28.7252L325.48 42.1251L321.892 41.0944C319.37 40.3447 317.819 40.3447 316.073 41.0944C313.843 42.0314 313.067 41.4692 302.205 30.2245C295.901 23.6651 288.919 16.4498 286.688 14.1071C284.36 11.7645 282.518 9.42185 282.518 8.85962C282.518 7.64145 292.992 5.11139 303.078 3.89322C312.776 2.67504 327.905 2.76875 337.312 4.17433ZM297.453 26.7574C307.927 37.721 312.388 43.1559 312 44.093C308.994 50.6524 312.388 56.5558 319.177 56.6495L323.153 56.7432L337.991 76.4214C346.137 87.1976 355.835 99.8478 359.424 104.439C363.012 109.031 365.921 113.154 365.921 113.529C365.921 114.56 363.788 115.778 352.344 121.588C347.301 124.211 336.051 129.927 327.517 134.425C318.886 138.829 309.575 143.14 306.86 143.983C303.078 145.014 301.526 146.045 300.362 148.2C297.647 153.354 300.556 158.882 306.666 160.194C309.091 160.663 311.612 163.38 320.146 174.344L330.717 187.931L328.875 190.18C326.353 193.366 326.644 198.333 329.553 201.05C330.814 202.362 332.366 203.393 332.948 203.393C333.53 203.393 333.918 207.422 333.918 214.637C333.918 220.822 333.627 225.882 333.239 225.788C332.56 225.788 321.019 211.639 281.063 161.694C276.505 156.071 272.82 151.011 272.82 150.449C272.82 149.043 328.196 120.932 330.814 120.932C331.881 120.932 334.112 119.807 335.76 118.495C340.706 114.466 339.736 107.344 333.918 105.002C332.366 104.346 330.135 104.065 329.069 104.346C327.614 104.721 326.256 103.877 323.929 100.972C319.564 95.6311 302.108 74.1725 286.591 55.0565C274.08 39.6888 273.79 39.2203 274.371 35.6594C274.953 32.4735 274.662 31.6301 272.044 29.1C270.104 27.2259 268.165 26.2889 266.225 26.2889C263.025 26.2889 258.273 29.4749 258.273 31.6301C258.273 32.8483 257.497 33.0357 253.714 32.5672C251.096 32.1923 247.314 31.7238 245.18 31.5364C243.047 31.2553 244.695 31.7238 248.865 32.6609C255.266 34.0664 256.624 34.6287 258.176 37.065C259.145 38.5643 260.6 40.4384 261.473 41.1881C262.928 42.3125 263.122 46.9041 263.122 90.8521V139.204L259.824 141.734C257.206 143.702 256.333 145.201 256.139 147.825L255.848 151.292L229.663 165.536C206.388 178.279 201.054 180.903 201.054 179.591C201.054 179.404 203.672 168.815 206.776 155.978C217.153 113.716 222.584 90.7584 222.196 90.4773C222.002 90.1962 217.056 109.312 211.334 132.926C199.114 183.058 200.084 179.404 199.114 178.467C197.175 176.593 191.356 157.196 189.998 148.013C183.985 108.562 196.981 70.0494 226.075 41.2818L235.094 32.3797L234.609 37.065L234.124 41.7503L235.676 36.3154C236.84 32.1923 237.616 30.9742 238.973 30.9742C239.943 30.9742 240.719 30.5056 240.622 29.8497C240.04 27.3196 262.54 14.5757 274.759 10.4526C278.736 9.14074 280.384 8.95332 281.257 9.79668C281.839 10.3589 289.209 17.9491 297.453 26.7574ZM367.958 15.2316C369.219 16.9183 374.553 24.0399 379.983 30.9742C393.658 48.5908 393.367 48.1223 392.009 50.9335C390.845 53.3698 387.839 54.4006 381.535 54.4006C378.044 54.4006 328.099 48.1223 327.614 47.6538C327.42 47.4664 327.032 46.3419 326.644 45.03C326.159 42.8748 327.129 41.844 336.536 34.535C342.258 30.1308 350.986 23.2903 355.738 19.3547C360.587 15.419 364.758 12.233 365.145 12.233C365.533 12.233 366.794 13.6386 367.958 15.2316ZM376.395 15.8875C389.488 22.2595 401.707 30.8805 411.89 40.7196C422.364 51.0272 422.364 50.7461 413.054 52.0579C408.884 52.7139 408.399 52.5265 405.683 49.7153C402.968 46.9041 402.386 46.7167 398.313 47.1852L393.949 47.6538L385.996 37.1587C368.443 14.482 366.891 12.233 367.861 12.233C368.443 12.233 372.225 13.9197 376.395 15.8875ZM269.91 30.9742C272.432 33.4105 272.335 35.2846 269.425 38.0021C266.613 40.8133 266.031 40.907 262.734 38.3769C259.63 36.0343 259.436 32.5672 262.346 30.5993C265.255 28.6315 267.583 28.7252 269.91 30.9742ZM284.748 57.3992C324.704 106.314 324.51 106.032 323.347 108.469C321.795 111.655 321.989 114.56 323.929 117.183C324.801 118.402 325.189 119.526 324.607 119.713C324.123 119.901 312.388 125.898 298.52 133.113C273.402 146.138 273.305 146.138 272.044 144.077C271.268 142.859 269.425 141.266 267.874 140.329L265.061 138.829L265.255 90.7584L265.546 42.7811L267.971 42.1251C269.328 41.7503 270.686 41.4692 270.977 41.3755C271.268 41.2818 277.475 48.5908 284.748 57.3992ZM323.929 45.5922C325.383 47.8412 325.383 48.3097 324.123 50.5586C321.601 54.8691 313.552 53.6509 313.552 48.8719C313.552 43.437 320.825 41.0944 323.929 45.5922ZM363.982 53.7446L372.225 54.8691L372.516 81.2941C372.71 107.251 372.71 107.719 370.673 108.75C369.607 109.312 368.152 109.593 367.473 109.406C366.794 109.125 363.497 105.189 360.102 100.691C356.708 96.0996 347.786 84.2927 340.221 74.5473C332.657 64.7082 326.256 56.2747 325.868 55.7125C325.48 55.1502 325.868 53.3698 326.644 51.8705L328.099 49.0594L341.87 50.8398C349.532 51.8705 359.424 53.1824 363.982 53.7446ZM403.162 51.2146C406.653 54.4943 404.035 60.0229 398.992 60.0229C395.5 60.0229 394.046 58.4299 394.046 54.6817C394.046 50.0901 399.768 47.9349 403.162 51.2146ZM424.595 54.7754C433.129 65.5516 441.663 82.9808 445.349 97.1304C447.482 105.564 449.713 119.339 449.131 121.025C448.937 121.681 442.924 113.716 435.747 103.502C428.571 93.2884 418.97 79.42 414.315 72.8606C406.265 61.3348 405.974 60.6789 406.944 57.8677C407.623 56.181 408.205 54.6817 408.302 54.4943C408.593 54.1195 418 52.1516 421.394 51.6831C421.782 51.5894 423.237 52.995 424.595 54.7754ZM392.494 59.4607C393.27 60.7726 394.919 61.9907 395.985 62.3656C397.925 62.9278 397.925 63.3026 397.731 134.8L397.44 206.579L387.354 214.825C381.826 219.323 376.88 222.79 376.492 222.509C376.007 222.227 375.619 200.3 375.619 173.782V125.523L379.014 122.431C383.184 118.589 383.572 114.466 379.983 111.093C378.723 109.781 377.171 108.75 376.589 108.75C375.91 108.75 375.619 100.316 375.619 82.9808V57.2118H383.281C390.263 57.2118 391.039 57.3992 392.494 59.4607ZM426.922 92.7262C438.657 109.687 448.355 124.118 448.355 124.68C448.355 125.711 441.081 137.799 411.89 185.776C406.556 194.491 401.998 201.519 401.61 201.519C401.125 201.519 400.834 170.596 400.834 132.832C400.834 62.9278 400.931 61.897 404.326 61.897C404.908 61.897 415.091 75.7655 426.922 92.7262ZM334.112 108.469C336.827 111.655 336.924 113.435 334.403 115.872C332.56 117.652 331.396 118.027 329.747 117.558C326.45 116.621 325.189 115.309 325.189 112.686C325.189 107.719 331.008 105.002 334.112 108.469ZM376.201 111.374C377.462 112.123 379.499 115.684 379.499 117.09C379.499 118.776 375.716 121.869 373.68 121.869C371.158 121.869 367.861 118.683 367.861 116.246C367.861 112.498 373.195 109.406 376.201 111.374ZM371.643 124.68C372.419 124.68 372.71 134.332 372.71 158.882V193.085L360.393 193.179C344.392 193.366 344.682 193.366 341.579 190.18C340.124 188.587 337.991 187.463 336.633 187.463C333.724 187.463 332.56 186.244 321.407 171.252L312.485 159.257L314.521 156.821C316.849 154.01 317.043 150.168 315.006 147.544C314.231 146.607 313.552 145.483 313.552 145.201C313.552 144.827 324.607 139.017 338.088 132.176C351.471 125.429 362.915 119.432 363.4 118.964C363.982 118.495 365.533 119.432 367.473 121.4C369.122 123.181 371.061 124.68 371.643 124.68ZM447.967 149.231C443.894 173.688 432.838 196.084 416.157 213.513L412.375 217.448L406.556 212.669C403.453 209.952 400.834 207.328 400.834 206.86C400.834 205.923 407.429 194.959 437.105 146.326L448.84 127.116L449.131 133.676C449.325 137.236 448.743 144.264 447.967 149.231ZM268.165 144.077C270.298 145.951 270.492 150.261 268.456 151.854C267.68 152.51 265.934 152.979 264.576 152.979C261.279 152.979 259.242 151.199 259.242 148.294C259.242 143.327 264.479 140.797 268.165 144.077ZM310.254 146.982C310.836 147.357 311.903 148.668 312.582 149.887C313.552 151.761 313.455 152.417 311.903 154.572C310.836 155.884 309.091 157.102 307.927 157.289C305.502 157.664 301.914 154.478 301.914 151.854C301.914 148.106 307.248 145.014 310.254 146.982ZM260.212 154.853L263.122 156.915V182.028V207.141L260.794 208.172C259.533 208.734 257.885 210.327 257.206 211.732C256.527 213.044 255.848 214.262 255.751 214.45C255.654 214.637 248.865 210.608 240.719 205.642C232.476 200.675 220.45 193.366 213.952 189.43C207.358 185.495 202.024 182.121 202.024 181.84C202.024 181.559 211.722 176.124 223.65 169.846C235.482 163.568 247.411 157.196 250.029 155.696C255.945 152.323 256.624 152.229 260.212 154.853ZM289.597 177.061C297.744 187.088 310.06 202.268 317.043 210.795C324.026 219.323 330.523 227.475 331.396 228.881L333.142 231.504H348.562C363.885 231.504 364.079 231.504 364.854 233.66C366.018 236.564 370.77 238.439 374.94 237.689C377.462 237.22 378.626 237.501 379.79 238.813C381.438 240.5 381.147 240.687 374.94 243.499C361.751 249.308 345.07 253.994 337.797 253.994C335.178 253.9 327.129 249.871 303.369 236.752L272.432 219.51L272.626 215.762C272.917 212.482 272.529 211.732 269.522 209.296L266.031 206.672V181.747C266.031 156.915 266.031 156.727 268.262 155.322C270.783 153.541 268.94 151.667 289.597 177.061ZM232.864 201.987C248.187 211.17 256.333 216.605 256.333 217.636C256.333 219.135 261.57 224.008 263.219 224.008C263.704 224.008 264.091 228.225 264.091 233.378C264.091 240.969 263.8 242.749 262.637 242.749C261.861 242.749 257.885 240.875 253.908 238.532C238.779 229.911 225.687 218.667 215.698 205.829C209.685 198.051 202.024 186.057 202.024 184.277C202.024 183.433 201.539 183.152 232.864 201.987ZM338.961 191.867C342.452 194.959 339.93 200.581 334.887 200.581C331.493 200.581 330.038 198.988 330.038 195.24C330.038 190.649 335.275 188.587 338.961 191.867ZM372.225 209.671V221.197L369.51 222.04C368.055 222.602 366.115 224.289 365.145 225.788L363.497 228.693H350.695H337.797V216.511V204.236L340.997 201.05L344.101 197.864L358.163 198.051L372.225 198.239V209.671ZM407.138 214.356L411.696 218.292L408.011 221.759C403.065 226.257 394.919 232.254 388.13 236.471L382.699 239.844L380.662 237.783C379.014 236.096 378.82 235.346 379.693 233.941C380.274 232.91 380.856 230.474 380.856 228.599C380.953 225.413 381.729 224.476 390.457 217.074C396.664 211.826 400.446 209.202 401.222 209.671C401.901 210.139 404.52 212.201 407.138 214.356ZM268.165 211.545C273.014 215.762 267.098 223.258 261.57 219.791C258.854 218.104 258.467 214.169 260.891 211.639C262.831 209.577 265.837 209.483 268.165 211.545ZM296.095 233.753C309.188 240.875 322.959 248.465 326.644 250.62L333.433 254.462L327.129 255.118C313.067 256.617 288.143 253.057 272.626 247.247L265.061 244.529V234.222C265.061 224.289 265.158 223.914 267.389 223.071C268.65 222.602 270.007 221.759 270.395 221.197C271.171 219.885 268.165 218.386 296.095 233.753ZM376.589 226.725C378.723 230.567 376.395 235.253 372.419 235.253C368.055 235.253 365.048 228.974 368.055 226.069C369.994 224.195 375.425 224.664 376.589 226.725Z" fill="#11FFCE" />
  <path d="M227.455 64.2305C224.37 77.7821 221.871 90.021 222.007 91.4443C222.098 92.3931 224.66 82.0336 227.819 68.0259C230.904 54.4742 233.404 42.2354 233.267 40.8121C233.176 39.8632 230.614 50.2228 227.455 64.2305Z" fill="#11FFCE" />
  <path d="M427.989 352.385C427.989 390.148 427.989 390.804 429.929 390.804C431.868 390.804 431.868 390.148 431.868 352.385C431.868 314.621 431.868 313.965 429.929 313.965C427.989 313.965 427.989 314.621 427.989 352.385Z" fill="#11FFCE" />
  <path d="M569.387 317.526C567.157 317.995 566.09 322.024 567.738 323.898C569.775 326.334 572.975 325.116 573.266 321.837C573.557 318.651 572.006 316.87 569.387 317.526Z" fill="#11FFCE" />
  <path d="M131.228 320.525C131.228 322.211 132.004 322.399 143.641 322.586L155.958 322.867L156.249 356.789L156.443 390.804H158.867H161.292L161.486 356.789L161.777 322.867L173.705 322.586C184.761 322.399 185.537 322.211 185.537 320.525C185.537 318.744 184.761 318.651 158.382 318.651C132.004 318.651 131.228 318.744 131.228 320.525Z" fill="#11FFCE" />
  <path d="M0.303589 356.226V390.898L5.44357 390.616L10.4866 390.335L10.7775 378.06L11.0685 365.691L16.9843 365.878L22.9971 365.972L30.3676 378.341L37.6412 390.804H43.654H49.6668L43.3631 380.215C39.8718 374.499 36.2835 368.596 35.4106 367.19C33.859 364.66 33.9559 364.566 38.3201 360.631C45.5936 353.978 47.8242 347.606 45.8846 338.61C44.9148 334.299 43.848 332.519 39.7748 328.49C33.374 322.211 30.6586 321.462 13.6869 321.462H0.303589V356.226ZM29.0099 332.519C30.1737 333.081 32.3073 334.862 33.665 336.548C38.3201 341.89 36.1865 351.354 29.4948 354.727C27.5552 355.664 23.9669 356.133 18.8269 356.133H11.0685L10.7775 344.701C10.5836 337.485 10.8745 332.894 11.5534 332.332C12.9111 331.02 26.3914 331.113 29.0099 332.519Z" fill="#11FFCE" />
  <path d="M91.4655 346.013C91.4655 367.659 91.2716 371.032 89.7199 373.843C87.1984 378.716 83.4161 380.965 77.8882 380.965C73.815 380.965 72.6513 380.496 69.7418 377.779C67.7052 375.905 66.0566 373.187 65.6686 371.407C65.0868 368.408 64.8928 368.315 60.3347 368.315C56.0675 368.315 55.5826 368.502 55.5826 370.376C55.5826 377.123 60.7226 384.807 67.4143 388.087C78.6641 393.615 91.6595 389.867 98.2542 379.278C100.679 375.343 100.679 375.249 100.97 348.449L101.261 321.462H96.4116H91.4655V346.013Z" fill="#11FFCE" />
  <path d="M206.097 338.422C197.175 342.733 192.811 351.448 192.908 365.035C192.908 377.498 196.69 384.807 205.418 389.211C213.855 393.428 235.482 391.554 235.482 386.587C235.482 385.369 234.997 384.807 234.027 385.088C233.252 385.275 230.439 386.025 227.724 386.775C222.099 388.368 212.207 387.805 208.134 385.744C202.412 382.933 198.92 377.404 197.66 368.97L196.981 364.566H217.541H238.198L237.519 358.101C236.549 347.606 233.252 341.796 226.269 338.329C221.032 335.705 211.625 335.799 206.097 338.422ZM224.329 342.264C226.075 343.483 228.306 345.45 229.275 346.762C231.409 349.48 233.446 358.944 232.282 360.068C231.797 360.537 223.844 360.724 214.534 360.631L197.66 360.35L197.951 357.538C198.823 350.792 203.672 343.951 209.297 341.515C213.952 339.547 220.644 339.922 224.329 342.264Z" fill="#11FFCE" />
  <path d="M266.322 337.954C260.6 339.922 254.005 347.137 252.066 353.415C250.029 359.787 250.126 369.439 252.066 375.905C253.23 379.559 254.878 382.183 258.176 385.275C263.316 390.336 267.486 391.741 276.699 391.647C285.136 391.647 289.694 390.054 290.082 387.15C290.373 385.275 290.179 384.994 288.628 385.65C287.658 386.025 284.069 386.775 280.578 387.243C266.031 389.492 256.721 381.996 255.557 367.19C254.684 355.758 258.66 346.669 266.322 342.827C270.201 340.765 277.087 340.297 287.367 341.327C288.918 341.515 289.888 341.046 290.082 340.016C290.761 336.642 274.468 335.237 266.322 337.954Z" fill="#11FFCE" />
  <path d="M318.498 337.954C316.655 338.704 313.455 341.046 311.418 343.201L307.733 347.043V342.264C307.733 337.86 307.539 337.392 305.599 337.392H303.369V363.91V390.335L306.084 390.616L308.703 390.898V372.344C308.703 354.915 308.8 353.415 310.933 349.573C313.455 344.513 318.013 341.421 323.832 340.578C333.142 339.266 339.639 342.733 341.579 349.948C342.161 352.385 342.646 362.036 342.646 372.438V390.804H345.07H347.495V371.313C347.495 360.631 347.01 350.323 346.525 348.449C345.167 343.951 341.191 339.359 337.118 337.766C332.948 336.08 322.668 336.173 318.498 337.954Z" fill="#11FFCE" />
  <path d="M375.716 338.891C369.994 341.702 365.727 347.043 363.885 353.79C362.236 359.506 363.206 373.562 365.63 378.622C370.673 389.492 382.408 394.177 395.5 390.71C401.513 389.117 408.011 382.277 410.047 375.436C412.666 366.909 411.793 355.102 408.011 348.074C403.938 340.297 398.313 337.017 388.324 336.642C381.923 336.361 380.274 336.642 375.716 338.891ZM395.597 341.983C403.55 345.45 407.235 354.071 406.362 366.722C405.489 378.997 400.349 386.025 391.136 387.524C381.729 389.024 374.649 385.65 370.479 377.498C368.152 373.094 367.667 371.032 367.667 364.847C367.667 360.818 368.152 355.758 368.831 353.509C372.225 342.639 384.832 337.298 395.597 341.983Z" fill="#11FFCE" />
  <path d="M463.484 337.86C456.986 340.109 450.779 347.231 448.937 354.634C447.482 360.256 448.161 371.594 450.295 377.029C452.816 383.401 459.023 389.305 465.036 390.804C471.339 392.491 480.456 391.46 485.596 388.555C493.063 384.338 496.845 376.373 496.942 364.473C497.136 346.481 488.602 336.361 473.473 336.455C470.079 336.548 465.618 337.111 463.484 337.86ZM479.583 341.14C484.626 342.546 489.669 348.449 491.124 354.727C492.772 361.755 491.802 373.468 489.281 378.341C485.596 385.275 478.322 388.742 469.691 387.618C459.896 386.306 454.271 379.091 453.398 366.815C452.137 347.418 463.096 336.736 479.583 341.14Z" fill="#11FFCE" />
  <path d="M520.606 337.767C516.435 339.734 514.787 341.234 512.459 344.888C508.095 351.822 510.908 364.754 517.405 368.221L519.733 369.439L516.532 372.531C512.653 376.28 512.168 381.059 515.272 383.776C517.793 386.025 517.696 386.775 514.884 387.431C511.586 388.18 506.737 393.896 505.962 398.019C504.507 405.422 509.356 411.888 518.084 414.23C522.642 415.449 533.31 415.449 539.42 414.137C549.021 412.169 555.034 405.984 555.034 398.113C555.034 387.993 549.7 384.338 534.668 384.245C529.625 384.151 523.903 383.682 522.06 383.026C519.248 382.089 518.569 381.433 518.375 378.81C518.084 376.373 518.666 375.155 521.091 373C523.515 370.751 524.679 370.376 527.394 370.845C531.564 371.501 539.032 369.72 542.717 367.19C548.73 362.973 550.767 353.509 547.275 345.919C544.851 340.953 544.851 341.14 547.663 341.14C552.027 341.14 556.004 339.922 556.004 338.704C556.004 337.767 554.549 337.392 550.476 337.392C547.372 337.392 540.099 337.204 534.183 336.923C525.94 336.455 522.836 336.736 520.606 337.767ZM538.644 342.358C546.403 347.325 545.918 360.162 537.868 365.222C534.28 367.565 525.455 367.378 521.381 365.035C513.332 360.443 513.235 346.856 521.285 342.077C525.94 339.36 534.28 339.453 538.644 342.358ZM540.584 388.93C549.215 390.429 552.318 395.958 548.73 403.361C546.306 408.233 540.584 410.763 530.983 411.232C522.351 411.7 516.048 410.107 512.944 406.828C508.968 402.611 510.617 393.428 515.757 390.804C520.8 388.18 531.758 387.337 540.584 388.93Z" fill="#11FFCE" />
  <path d="M603.039 337.111C599.451 337.86 592.856 340.39 592.856 340.953C592.953 343.576 594.602 343.764 600.518 342.077C615.744 337.485 623.89 341.796 623.89 354.54V359.6L614.774 360.256C603.524 361.006 596.736 362.88 592.371 366.534C584.128 373.562 585.971 386.4 595.766 390.242C604.009 393.428 613.998 391.741 620.205 386.119C622.435 384.057 624.375 382.37 624.569 382.37C624.666 382.37 624.86 384.245 624.86 386.587C624.86 390.523 625.054 390.804 627.381 390.804H630L629.515 369.439C629.127 349.761 628.933 347.887 626.897 344.139C624.084 338.891 618.944 336.455 610.798 336.548C607.597 336.642 604.106 336.83 603.039 337.111ZM623.89 368.971C623.793 378.622 619.332 384.994 610.895 387.149C600.712 389.773 592.856 385.463 592.856 377.31C592.856 368.408 601.003 364.098 618.362 363.723L623.89 363.629V368.971Z" fill="#11FFCE" />
  <path d="M567.641 364.098V390.804H570.066H572.49V364.098V337.392H570.066H567.641V364.098Z" fill="#11FFCE" />
  <path d="M345.846 652.899C346.719 653.086 348.077 653.086 348.756 652.899C349.337 652.618 348.659 652.43 347.01 652.43C345.458 652.43 344.876 652.618 345.846 652.899Z" fill="black" />
  <path d="M193.392 739.014C193.392 740.045 193.683 740.326 193.974 739.576C194.265 738.921 194.168 738.077 193.877 737.796C193.586 737.421 193.295 737.983 193.392 739.014Z" fill="black" />
</svg>